<svg xmlns="http://www.w3.org/2000/svg" viewBox="0 0 858.93 517.24"><title>Asset 1</title><g id="Layer_2" data-name="Layer 2"><g id="Layer_1-2" data-name="Layer 1"><g id="Layer_2-2" data-name="Layer 2"><g id="Layer_1-2-2" data-name="Layer 1-2"><path d="M419.84,517.24c-11.16,0-14.57-14.18-13.93-20.1,1.07-9.92,2.41-19.81,3.57-29.72.55-4.75,1-9.52,1.44-14.28l-1.19-.14c-1,3.67-2,7.34-2.91,11-2.59,10.33-5,20.72-7.8,31-1.76,6.38-6.41,9.91-13,10.91-10,1.52-15.46-5-12.14-14.48.28-.78.59-1.56.93-2.31,3.6-7.88,7.23-15.74,10.8-23.63,3-6.59,5.92-13.21,8.88-19.82l-.87-.5a24,24,0,0,0-1.82,2.08l0,.06c-6.53,9.44-12.83,19.06-19.63,28.3-9.3,12.74-15.3,13.88-30.73,12.17-3.47-.38-7.59-1.82-8-5.66-.26-2.39,1.87-5.55,3.77-7.58,10.26-10.93,20.75-21.63,31.22-32.36,5-5.13,10.18-10.08,15.13-15.26,2.94-3.08,5.59-6.44,8.36-9.68l-.45-1a43.05,43.05,0,0,0-6,1.3l-.08,0c-12,4.54-23.9,9.23-35.88,13.78A185.68,185.68,0,0,1,293,443.05c-5.21.27-10.52-1-15.76-1.78l-.12,0a16.85,16.85,0,0,1-3.37-1.32.91.91,0,0,1-.49-.73v-.11a.93.93,0,0,1,.45-.9,38.58,38.58,0,0,1,4.45-2.24l.08,0c7.08-2.45,14.24-4.62,21.28-7.17,10.84-3.92,21.38-8.52,30.49-15.76,2-1.56,3.45-3.71,5.15-5.59l-.73-.86a26.25,26.25,0,0,0-3.13,1c-8.59,3.64-17,7.87-25.76,10.88-21.24,7.25-43,11.19-65.67,10-12.11-.64-23.87-2.39-35-7.36-3.88-1.74-7.86-3.56-11.11-7.45a.93.93,0,0,1,.47-1.5c1.69-.46,2.95-.83,4.18-1,9.85-1.65,19.72-3.15,29.56-4.88,15.44-2.71,30.82-5.74,45.31-12a42.41,42.41,0,0,0,13.51-8.68.93.93,0,0,0-.77-1.57,26.38,26.38,0,0,0-4,.81c-13.73,3.42-27.36,7.35-41.2,10.18-20.57,4.2-41.28,7.42-62.38,3.39-12-2.31-23.66-5.55-34.47-11.44a41.28,41.28,0,0,1-13.36-11.88.92.92,0,0,1,.69-1.48c2.18-.12,3.74-.23,5.27-.23,14.83,0,29.68.37,44.49-.14,13.78-.48,27.55-1.59,41.26-3A103.59,103.59,0,0,0,263,357a60.39,60.39,0,0,0,5-3.56l-.49-.94a20.34,20.34,0,0,0-3.21.35l-.08,0c-17.8,4.65-36.07,6.31-54.3,7.07-19.59.81-39.27,1.06-58.85-1.61s-38.48-7.66-55.73-17.85a107.33,107.33,0,0,1-35.48-33.75c-1.2-1.84-2.82-3.68-2.33-6.46a1,1,0,0,1,.91-.79,24.56,24.56,0,0,1,5.56.09c5.87,1.19,11.69,2.64,17.52,4.06,16.67,4.05,33.22,8.76,50,12a492.21,492.21,0,0,0,49.84,7.18c12.56,1.13,25.32.55,38,.08,7.41-.27,14.79-1.77,22.18-2.83l.14,0a14,14,0,0,0,3.11-1.33l-.25-1.08c-4.38-.78-8.74-1.76-13.15-2.3-20-2.41-40-4.52-59.94-7.09-23.5-3-46.68-7.66-69.15-15.38-22.92-7.88-43.19-19.8-59-38.62a88.89,88.89,0,0,1-18.81-36.53,13.58,13.58,0,0,1,.09-4.35.93.93,0,0,1,1-.84c1.41.08,2.82.14,4.24.27l.2,0a5,5,0,0,1,1.27.56c22.6,10.12,44.83,20.71,67.6,30.11,18.6,7.69,37.65,14.39,56.76,20.75,19.65,6.53,40.11,9.72,60.57,12.67,5.51.78,11.07,1.24,16.61,1.77a.92.92,0,0,0,.49-1.75,8.24,8.24,0,0,0-1.37-.48q-12.48-3.64-25-7.18c-37.06-10.44-73.17-23.62-107-42.46-23.28-13-44.76-28.13-62.43-48.36-15.92-18.24-27.8-38.61-33.62-62.24C1.43,106.09-2.06,65,1.57,55.55,3.5,50,6.76,49.29,10.63,53.62c.55.62,1,1.35,1.5,2,4.46,5.62,8.78,11.31,13.45,16.72,12,13.86,24.32,27.35,36,41.39,14,16.69,29.72,31.51,46.16,45.51a426.11,426.11,0,0,0,46.59,34.35,458.7,458.7,0,0,0,72.1,37.65C254.43,242.86,283.35,251,313,257c5.75,1.15,5.89,1.33,5.9,7.18,0,13.66.36,27.34-.12,41-.59,16.63,11.85,29.87,24.8,34.52a62.08,62.08,0,0,0,33.94,2.25c7.14-1.45,13.53-4.5,18.41-10.28,4.71-5.56,5.74-16.56,1.44-22.46-6.07-8.32-15.15-9.61-24.51-9.33-3.59.1-7.18,1.11-11.1,1.92a.93.93,0,0,1-1.1-1.08,16.44,16.44,0,0,1,.46-2c2.68-8.06,8.81-12.19,16.53-14.59,6.89-2.14,13.41-5.08,19-9.77,4.35-3.67,9.61-3.47,14.69-3.61,12.62-.36,25.28,0,37.87-.74a41.05,41.05,0,0,0,22.26-8.16,20.36,20.36,0,0,1,1.9-1.28.92.92,0,0,1,1.41.76,9.22,9.22,0,0,1-.88,3.85,45.93,45.93,0,0,1-19.92,21c-3.34,1.86-6.83,3.47-10.24,5.22-2.86,1.46-4.71,3.27-4,7.05.55,2.9.11,6,.14,9,.21,17.63,13.74,34,30.92,37.71a53.32,53.32,0,0,0,30.91-2.8c13.45-5.18,23-14.36,25.06-29.14,1.11-7.84.88-15.92.71-23.88-.16-7.3-1.25-14.57-1.59-21.87-.28-6,.31-6.13,6.21-7.32,14.69-3,29.47-5.62,44-9.36a441.53,441.53,0,0,0,62.41-21.14,453.39,453.39,0,0,0,66.27-34.76,510.32,510.32,0,0,0,60.3-45.19,485,485,0,0,0,47.67-46.88c12.36-14.15,24.27-28.69,36.47-43,1.83-2.15,4-4,6.35-6.3a1,1,0,0,1,1.49.28c3.1,4.93,1.57,44.91,1,50.72-1.74,20.36-9,38.89-19.24,56.27-14,23.64-33.36,42.2-55.79,57.71-25.57,17.69-53.73,30.15-83.1,39.83a598.67,598.67,0,0,1-84.76,21.22c-2,.34-3.89,1-5.83,1.51.09.39.18.78.26,1.17,1.64,0,3.29.1,4.92,0,13.27-.94,26.58-1.42,39.77-3,30.59-3.64,60-12.08,88.88-22.68,26.77-9.84,52.63-21.77,78.13-34.49a29.32,29.32,0,0,1,5.56-2.22c3-.82,3.88-.09,4,3.14a7.14,7.14,0,0,1-.16,2.48c-2.92,8.48-5,17.42-9.07,25.28-8.91,17.09-23.61,28.6-40.21,37.75-20.79,11.46-43.22,18.44-66.41,22.72-15,2.77-30.28,4.33-45.47,6.12-10.56,1.25-21.17,2.13-31.78,2.86-8.79.61-17.62.73-26.42,1.17-1.73.08-3.42.27-5.11.48a.93.93,0,0,0-.21,1.79c9.45,3.5,19.08,6.13,29,6.39,22.45.6,45,1.5,67.31-2.08a541.85,541.85,0,0,0,82-19.64c2.39-.78,4.89-1.25,8.14-2a.93.93,0,0,1,1.11,1.11c-.48,2.18-.64,3.69-1.37,4.85-5.08,8-9.62,16.46-15.73,23.58-9.89,11.54-23.51,17.83-37.57,22.9-20.26,7.3-41.31,10.14-62.74,10.58-18.17.38-36.31-.1-54.27-3-13.63-2.22-27.18-5-40.79-7.39-1.46-.19-2.92-.31-4.38-.38a.94.94,0,0,0-.7,1.59,4.13,4.13,0,0,0,.93.72A131.92,131.92,0,0,0,617.48,376,319.49,319.49,0,0,0,679,382.24c7.17.06,14.34-.11,21.5.07,4.81.13,9.63.59,14.41,1.14a4.34,4.34,0,0,1,3,1.75.82.82,0,0,1,.16.34,4.34,4.34,0,0,1-1.67,2.9c-11.07,7.88-22.76,14.65-36.35,17-18.69,3.25-37.5,2.69-56.21.27-22.76-2.94-44.52-9.69-65.75-18.28l-.09,0-.36-.11a.93.93,0,0,0-1,1.49,42.39,42.39,0,0,0,12.11,9.46c15.86,8.72,33.17,12.85,50.79,15.94,8.35,1.47,16.77,2.59,25.13,4a8,8,0,0,1,2.93,1.61A.93.93,0,0,1,648,421c-.63,1.21-1.17,2.61-2.15,3.08-7,3.35-14,7.45-21.45,9.29-12,2.95-24.48,2.4-36.78,1.49-7.44-.55-15-1.08-22.22-2.82-18.94-4.54-36.43-12.71-53.07-22.75-1.32-.77-2.75-1.4-4.42-2.16a.93.93,0,0,0-1.29,1.08c0,.16.08.31.13.47a.85.85,0,0,0,.11.26c.5.81,1,1.59,1.6,2.35,4.84,6.88,11.76,11.16,18.89,15.2,11.39,6.45,23.81,10.25,36.2,14.16l.06,0q2.56,1,5,2.16a.93.93,0,0,1,0,1.69l-.66.29-.12,0a42.2,42.2,0,0,1-4.28,1.15c-11.6,2.18-23.2,1.71-34.76-.31-16.23-2.84-31.24-9.23-46.14-16-8.31-3.79-16.78-7.24-25.24-10.7l-.08,0a43.54,43.54,0,0,0-5.62-1.4,1,1,0,0,0-1,.52h0a1,1,0,0,0,.09,1c.83,1.12,1.71,2.2,2.64,3.23l.06.05q17.52,17.08,35.1,34.09c.47.47,1,.84,1.52,1.3,6.81,6.6,13.65,13.18,20.4,19.85a15.93,15.93,0,0,1,2.53,3.66s0,0,0,.05a3.24,3.24,0,0,1-.75,4.49c-.14.09-.28.18-.43.26-5.22,3.15-10.77,5.18-17,4.48-10.31-1.15-17.25-7.56-23-15.31-7.56-10.13-14.69-20.59-22-30.87l-.05-.07a33,33,0,0,0-3-3.17l-.8.72c.31.92.56,1.87.95,2.75,4,9,8.13,17.89,11.93,27,3.55,8.43,7.05,16.91,10,25.56,2,5.89-2.23,10.93-8.5,11-6.91.1-15-5.71-16.95-12.49-1.46-5.12-2.63-10.33-3.78-15.53-2-9-3.86-18.12-5.78-27.18l-1.19.17c.41,7.58.73,15.17,1.25,22.74.48,6.8,1.34,13.57,1.75,20.37C436.23,504.44,433.56,517.24,419.84,517.24ZM405.45,285.88c2.9,0,5.09-1.68,4.94-3.71-.18-2.48-2.29-4-5.41-3.85-2.32.1-4.38.71-4.73,3.4C400,283.94,402.55,285.92,405.45,285.88Z"/><path d="M262.15.15c13.68.42,27.28.74,40.92,1.09a18.84,18.84,0,0,1,3,.31c6.95,1.15,7.66,1.85,7.8,9,.14,6.61,0,13.23,0,19.85a14.35,14.35,0,0,1-5.17,11c-1.45,1.31-4.25,1.69-6.39,1.56-12.76-.72-25.48-1.81-38.27-2.72-6.3-.43-12.62-.72-18.93-1a56.52,56.52,0,0,0-6.36.59c2.7,4.88,4.9,8.88,7.13,12.86,8.45,15.1,16.72,30.32,25.48,45.25,4.31,7.35,3.74,13.7-1.43,20.18-9.22,11.58-18.3,23.27-27.44,34.92-2,2.48-4,4.88-5.81,7.48-2.39,3.49-2,5,2,6.3,7.88,2.66,15.81,5.27,23.85,7.41,14,3.74,28.09,7.11,42.14,10.63.81.21,1.63.38,2.43.6,8.6,2.37,8.79,2.61,8.81,11.64,0,7.33,0,14.66,0,22-.06,6.55-1.78,8.23-8.25,6.86C300,224.35,292.45,222.25,285,220a702.62,702.62,0,0,1-74.56-27.28,164.49,164.49,0,0,1-19.56-10,11.43,11.43,0,0,1-5-6.42A90.18,90.18,0,0,1,184,160.53c-.08-1.37,1.09-3.09,2.16-4.19,5.81-6,12-11.59,17.63-17.71,8.78-9.53,17.26-19.34,25.81-29.08,3.76-4.29,4-8.84,1-13.79-6-10.14-11.67-20.52-17.86-30.58-6.63-10.77-13.86-21.2-20.51-31.94-6.81-11-7.82-26.51-3.88-30.61C191.35-.55,260,0,262.15.15Z"/><path d="M345.87,100q.19-25.71,1-51.42c.43-14,1.31-27.9,1.92-41.86.12-2.7,1.29-4.43,3.81-5.2,1.54-.63,20.13-.83,27.75-.27,4.86.37,6.07,1.82,6.41,6.6.49,6.8,1.8,73.42,2.12,79.34.16,3.38,2.23,4.68,5.19,4.93,8.78.75,43.6,2.28,52.21,2,5.55-.14,7.73-2.38,8.35-7.87.52-4.62,2.76-74.64,3.43-78.74.7-4.44,2.09-5.55,6.46-6.35a97.75,97.75,0,0,1,26.75.7c6.33,1.61,6.65,2.07,6.55,8.55-.25,15.48-.72,31-.91,46.43-.16,12.67,0,25.33-.08,38q-.43,45.21-1,90.42c-.19,13.81-.63,27.62-1,41.43-.22,8.57-1.74,10.39-10.39,11.52-6.59.87-13.21,1.68-19.84,1.9-7.36.24-8.63-.91-8.81-8-.5-19.47-1.59-75.42-2-83.85-.22-4.35-1.26-5.54-5.64-6.07s-52-.55-55.34,0c-4.67.66-5.66,1.67-5.82,6.43-.44,13-2.19,63.63-2.86,78.75-.1,2.17.06,9.4-5.18,9.15-7.63-.54-13.74-.78-21.37-1.31a21.29,21.29,0,0,1-4.87-1c-6.58-2.09-7.82-3.84-7.83-10.78v-17S345.59,135.45,345.87,100Z"/><path d="M637,200.91c-.45-4.5-1.12-8.09-1.12-11.67q-.12-66.26-.1-132.49a51.79,51.79,0,0,0-.72-8.44c-.8-4.6-1.82-5.66-6.55-5.87-5.65-.25-11.33-.22-17,.07-7.63.39-15.25,1.16-22.87,1.75a19.19,19.19,0,0,0-2,.07c-8.78.74-10.61,2.74-10.8,11.56-.32,14.81-.81,29.61-1,44.42-.41,33.64-.6,67.29-1.09,100.93a102.75,102.75,0,0,1-2.05,16.3,9.32,9.32,0,0,1-7,7.8c-8.08,1.91-16.23,3.71-24.46,4.81-6,.81-6.51-.11-6.51-6.24V108.42q0-42.75.1-85.49c0-5,.66-10,1-14.93.21-3.11,2.24-4.38,5-4.63,5.13-.49,10.27-1.08,15.42-1.09q51-.15,102,0c4.81,0,9.62.62,14.42,1.07,3,.27,5,1.67,5.32,4.92.25,2.64.83,5.28.85,7.92.09,12.33.16,24.67,0,37-.22,16.64-.62,33.28-1,49.93-.28,12.47-.51,24.95-1,37.42-.5,12.29-1.3,24.57-2,36.86-.3,5.42-2.61,9.49-7.76,11.81-7.28,3.27-14.45,6.78-21.75,10C642.38,200,640.18,200.24,637,200.91Z"/></g></g></g></g></svg>